Coordinates
version=1
nRows=13
nColumns=63
inDegrees=yes

Units are S.I. units (second, meters, Newtons, ...)
If the header above contains a line with 'inDegrees', this indicates whether rotational values are in degrees (yes) or radians (no).

endheader
time	pelvis_tilt	pelvis_list	pelvis_rotation	pelvis_tx	pelvis_ty	pelvis_tz	hip_flexion_r	hip_adduction_r	hip_rotation_r	knee_angle_r	knee_angle_r_beta	ankle_angle_r	subtalar_angle_r	mtp_angle_r	hip_flexion_l	hip_adduction_l	hip_rotation_l	knee_angle_l	knee_angle_l_beta	ankle_angle_l	subtalar_angle_l	mtp_angle_l	L5_S1_Flex_Ext	L5_S1_Lat_Bending	L5_S1_axial_rotation	L4_L5_Flex_Ext	L4_L5_Lat_Bending	L4_L5_axial_rotation	L3_L4_Flex_Ext	L3_L4_Lat_Bending	L3_L4_axial_rotation	L2_L3_Flex_Ext	L2_L3_Lat_Bending	L2_L3_axial_rotation	L1_L2_Flex_Ext	L1_L2_Lat_Bending	L1_L2_axial_rotation	L1_T12_Flex_Ext	L1_T12_Lat_Bending	L1_T12_axial_rotation	Abs_r3	Abs_r2	Abs_r1	Abs_t1	Abs_t2	neck_flexion	neck_bending	neck_rotation	arm_flex_r	arm_add_r	arm_rot_r	elbow_flex_r	pro_sup_r	wrist_flex_r	wrist_dev_r	arm_flex_l	arm_add_l	arm_rot_l	elbow_flex_l	pro_sup_l	wrist_flex_l	wrist_dev_l
1.383333	6.651878	-4.666027	94.181611	0.307267	1.057805	0.386097	-0.757732	1.421580	-16.876427	8.420306	0.146962	28.137978	16.742563	0.000000	2.195298	-1.412005	-4.836774	12.654796	0.220868	27.665999	7.309240	0.000000	0.127817	0.063515	0.037803	0.237369	0.084475	0.040166	0.209991	0.154430	0.040166	0.146082	0.154430	0.033078	0.118691	0.129520	0.030715	0.073035	0.098385	0.028352	0.912984	0.718494	0.210250	0.000000	0.000000	22.223856	-1.802505	-7.596661	7.458743	-11.633735	51.114168	54.276311	18.989900	4.271037	17.025675	13.435622	-9.822475	66.446930	54.145709	63.547433	-8.057131	-1.723886
1.400000	6.702237	-4.608065	94.175060	0.307203	1.057881	0.386096	-0.815211	1.469635	-16.890557	8.437752	0.147267	28.108319	16.766010	0.000000	2.092600	-1.428183	-4.575590	12.541298	0.218887	27.601837	7.154888	0.000000	0.123857	0.070034	-0.004322	0.230015	0.093146	-0.004592	0.203485	0.170282	-0.004592	0.141557	0.170282	-0.003782	0.115014	0.142814	-0.003511	0.070772	0.108483	-0.003241	0.884700	0.792244	-0.024037	0.000000	0.000000	22.413540	-1.841846	-7.390574	7.700333	-11.631585	51.673310	54.206219	18.252876	3.662521	17.051358	13.152250	-9.852607	65.952349	54.124471	65.035229	-7.958761	-1.540226
1.416667	6.756283	-4.552649	94.190253	0.307101	1.057947	0.386129	-0.866367	1.517925	-16.937958	8.459446	0.147645	28.097141	16.814242	0.000000	2.003555	-1.449045	-4.317554	12.442637	0.217165	27.536822	7.011352	0.000000	0.120597	0.077246	-0.048928	0.223961	0.102737	-0.051986	0.198129	0.187815	-0.051986	0.137830	0.187815	-0.042812	0.111986	0.157519	-0.039754	0.068909	0.119654	-0.036696	0.861412	0.873819	-0.272120	0.000000	0.000000	22.549644	-1.878823	-7.169235	7.944533	-11.630818	52.213865	54.115309	17.533369	3.160418	17.141381	12.914807	-9.881083	65.560037	54.078814	66.467056	-7.875822	-1.401784
1.433333	6.810895	-4.500144	94.195992	0.307012	1.057995	0.386177	-0.912619	1.564950	-16.981841	8.479294	0.147992	28.094486	16.880433	0.000000	1.916426	-1.473898	-4.109902	12.347421	0.215503	27.471103	6.883807	0.000000	0.118095	0.084852	-0.089765	0.219315	0.112853	-0.095376	0.194019	0.206308	-0.095376	0.134971	0.206308	-0.078545	0.109663	0.173030	-0.072934	0.067480	0.131435	-0.067324	0.843542	0.959859	-0.499248	0.000000	0.000000	22.655651	-1.914314	-6.906045	8.169967	-11.632067	52.700393	54.022527	17.060031	2.747918	17.198963	12.721426	-9.908788	65.262819	54.030693	67.676647	-7.805502	-1.239235
1.450000	6.865794	-4.456507	94.213135	0.306924	1.058009	0.386255	-0.949477	1.612562	-17.032613	8.494620	0.148259	28.093015	16.947475	0.000000	1.851886	-1.508045	-3.966426	12.282830	0.214376	27.415813	6.814620	0.000000	0.117163	0.092400	-0.130077	0.217583	0.122892	-0.138206	0.192487	0.224662	-0.138206	0.133905	0.224662	-0.113817	0.108797	0.188423	-0.105687	0.066947	0.143128	-0.097557	0.836883	1.045251	-0.723447	0.000000	0.000000	22.748868	-1.962354	-6.620896	8.376885	-11.630300	53.126484	53.923013	16.742785	2.455185	17.265415	12.583536	-9.937643	65.083968	53.975522	68.622412	-7.770650	-1.107351
1.466667	6.916794	-4.425463	94.228823	0.306858	1.057981	0.386352	-0.970523	1.655305	-17.082665	8.510432	0.148535	28.099409	17.018642	0.000000	1.807403	-1.548425	-3.912491	12.242993	0.213681	27.374893	6.824124	0.000000	0.118235	0.099284	-0.167694	0.219575	0.132047	-0.178175	0.194249	0.241398	-0.178175	0.135131	0.241398	-0.146732	0.109793	0.202459	-0.136251	0.067560	0.153790	-0.125771	0.844542	1.123115	-0.932665	0.000000	0.000000	22.839806	-2.032175	-6.319847	8.575790	-11.634900	53.536416	53.834575	16.516603	2.248246	17.294457	12.477921	-9.966525	64.956554	53.924097	69.351099	-7.750550	-0.988444
1.483333	6.956888	-4.402291	94.223138	0.306848	1.057924	0.386469	-0.981724	1.689459	-17.075629	8.520367	0.148708	28.112686	17.051742	0.000000	1.770007	-1.584596	-3.933213	12.215543	0.213201	27.338425	6.867287	0.000000	0.120102	0.104645	-0.196181	0.223042	0.139178	-0.208443	0.197316	0.254433	-0.208443	0.137265	0.254433	-0.171659	0.111527	0.213392	-0.159397	0.068626	0.162095	-0.147136	0.857879	1.183763	-1.091102	0.000000	0.000000	22.943645	-2.119336	-6.011896	8.763302	-11.647464	53.919741	53.752046	16.473053	2.167790	17.234912	12.417290	-9.992644	64.896700	53.872635	69.783814	-7.740137	-0.918464
1.500000	6.984823	-4.398452	94.199470	0.306885	1.057819	0.386630	-0.964052	1.709232	-17.039574	8.536757	0.148995	28.145399	17.075278	0.000000	1.758649	-1.611348	-4.001822	12.209587	0.213097	27.311818	6.904710	0.000000	0.124165	0.107851	-0.213516	0.230588	0.143442	-0.226860	0.203991	0.262229	-0.226860	0.141909	0.262229	-0.186826	0.115300	0.219930	-0.173482	0.070948	0.167061	-0.160137	0.886901	1.220034	-1.187510	0.000000	0.000000	23.071428	-2.236788	-5.755741	8.930028	-11.670414	54.261501	53.690546	16.384974	2.174287	17.170819	12.393752	-10.009044	64.873168	53.820805	70.039487	-7.765902	-0.911815
1.516667	6.998241	-4.409140	94.153360	0.306973	1.057681	0.386841	-0.921821	1.713594	-16.962606	8.557967	0.149365	28.196542	17.080378	0.000000	1.763958	-1.624518	-4.104800	12.213739	0.213170	27.294852	6.920794	0.000000	0.129469	0.108519	-0.217095	0.240438	0.144331	-0.230664	0.212705	0.263854	-0.230664	0.147971	0.263854	-0.189958	0.120225	0.221293	-0.176390	0.073979	0.168096	-0.162821	0.924787	1.227592	-1.207418	0.000000	0.000000	23.226416	-2.376519	-5.564241	9.071722	-11.706296	54.560218	53.648056	16.292434	2.262338	17.026760	12.410474	-10.011550	64.886227	53.763315	70.098916	-7.813388	-0.994619
1.533333	6.996873	-4.430916	94.073332	0.307130	1.057525	0.387097	-0.857803	1.703356	-16.818344	8.583640	0.149813	28.262317	17.051644	0.000000	1.779858	-1.624590	-4.247971	12.226515	0.213393	27.290211	6.911674	0.000000	0.135669	0.106644	-0.202105	0.251950	0.141836	-0.214736	0.222890	0.259294	-0.214736	0.155056	0.259294	-0.176841	0.125982	0.217468	-0.164210	0.077521	0.165191	-0.151578	0.969068	1.206376	-1.124045	0.000000	0.000000	23.396256	-2.564276	-5.472655	9.153937	-11.735999	54.706417	53.613567	16.322413	2.436055	16.866077	12.479105	-9.996724	64.962781	53.695602	69.992294	-7.882271	-1.184194
1.550000	6.990334	-4.457772	93.963088	0.307343	1.057363	0.387416	-0.776241	1.686659	-16.645727	8.618450	0.150420	28.338413	17.027624	0.000000	1.806340	-1.633651	-4.535586	12.259126	0.213962	27.326113	7.026381	0.000000	0.141890	0.103319	-0.170917	0.263503	0.137414	-0.181599	0.233111	0.251209	-0.181599	0.162166	0.251209	-0.149552	0.131759	0.210688	-0.138870	0.081076	0.160041	-0.128187	1.013504	1.168763	-0.950587	0.000000	0.000000	23.571183	-2.769159	-5.470786	9.184445	-11.766774	54.730487	53.611983	16.311757	2.570431	16.682962	12.591117	-9.959200	65.067303	53.621926	69.794581	-7.944109	-1.389474
1.566667	6.979227	-4.489780	93.830980	0.307580	1.057198	0.387803	-0.673043	1.660579	-16.472738	8.675218	0.151411	28.416615	17.022404	0.000000	1.841212	-1.636463	-4.827158	12.299388	0.214665	27.367624	7.092573	0.000000	0.148284	0.098823	-0.124798	0.275378	0.131435	-0.132598	0.243615	0.240279	-0.132598	0.169474	0.240279	-0.109198	0.137696	0.201521	-0.101398	0.084729	0.153077	-0.093598	1.059176	1.117910	-0.694088	0.000000	0.000000	23.737395	-2.999685	-5.566374	9.141592	-11.783167	54.562082	53.637415	16.279609	2.658300	16.559515	12.761127	-9.896637	65.242286	53.528305	69.568936	-7.988710	-1.614727
1.583333	6.970531	-4.512721	93.668548	0.307840	1.057058	0.388246	-0.572080	1.635360	-16.277097	8.736022	0.152472	28.476912	17.019032	0.000000	1.865536	-1.642243	-5.147083	12.340103	0.215375	27.413224	7.137473	0.000000	0.152636	0.094482	-0.068032	0.283460	0.125661	-0.072284	0.250765	0.229724	-0.072284	0.174447	0.229724	-0.059528	0.141737	0.192668	-0.055276	0.087216	0.146353	-0.051024	1.090261	1.068803	-0.378374	0.000000	0.000000	23.888639	-3.228871	-5.712171	9.060421	-11.797270	54.309666	53.682424	16.312207	2.687777	16.350424	12.966186	-9.813126	65.448174	53.423402	69.321192	-7.993386	-1.814944
